# xmcd CD database file generated by Grip 3.3.1
# 
# Track frame offsets:
#       150
#       30280
#       45198
#       62603
#       86250
#       104520
#       126683
#       149142
#       163733
#       185055
#       208993
#       227433
#       247623
#       267305
#       285695
#       305780
# 
# Disc length: 4752 seconds
# 
# Revision: 6
# Processed by: cddbd v1.5.2PL0 Copyright (c) Steve Scherf et al.
# Submitted via: Grip 3.3.1
# 
DISCID=e8128e10
DTITLE=Rainbow - Catch The Rainbow: The Anthology [CD2]
DYEAR=2003
DGENRE=Hard Rock
TTITLE0=Eyes Of The World
TTITLE1=Since You Been Gone
TTITLE2=All Night Long
TTITLE3=Weiss Heim
TTITLE4=I Surrender
TTITLE5=Spotlight Kid
TTITLE6=Can't Happen Here
TTITLE7=Jealous Lover
TTITLE8=Death Alley Driver
TTITLE9=Stone Cold
TTITLE10=Tearin' Out My Heart
TTITLE11=Power
TTITLE12=Can't Let You Go
TTITLE13=Desperate Heart
TTITLE14=Street Of Dreams
TTITLE15=Difficult To Cure (Beethoven's Ninth) (Live)
EXTD=YEAR: 2003
EXTT0=
EXTT1=
EXTT2=
EXTT3=
EXTT4=
EXTT5=
EXTT6=
EXTT7=
EXTT8=
EXTT9=
EXTT10=
EXTT11=
EXTT12=
EXTT13=
EXTT14=
EXTT15=
PLAYORDER=
